<svg xmlns="http://www.w3.org/2000/svg" xmlns:xlink="http://www.w3.org/1999/xlink" viewBox="0 0 291.75 295"><defs><style>.cls-1{fill:#f2d1eb;}.cls-2{fill:#d1749b;}.cls-3{fill:#3c9997;}.cls-16,.cls-4{fill:#b2ede6;}.cls-12,.cls-5{opacity:0.25;}.cls-6{fill:url(#Unbenannter_Verlauf_34);}.cls-7{fill:url(#Unbenannter_Verlauf_35);}.cls-8{fill:url(#Unbenannter_Verlauf_23);}.cls-9{fill:#a5a5a5;}.cls-10{fill:#f2f2f2;}.cls-11{fill:#134040;}.cls-13{fill:#5e8e8b;}.cls-14{fill:#182d1f;}.cls-15{fill:#ffe1f9;}.cls-16{opacity:0.51;}.cls-17{fill:none;stroke:#f2f2f2;stroke-miterlimit:10;stroke-width:2px;}</style><linearGradient id="Unbenannter_Verlauf_34" x1="223.3" y1="244.05" x2="215.2" y2="235.95" gradientUnits="userSpaceOnUse"><stop offset="0" stop-color="#a5a5a5"/><stop offset="0.32" stop-color="#a3a3a3"/><stop offset="0.5" stop-color="#9b9b9b"/><stop offset="0.63" stop-color="#8d8d8d"/><stop offset="0.75" stop-color="#7a7a7a"/><stop offset="0.86" stop-color="#616161"/><stop offset="0.96" stop-color="#424242"/><stop offset="1" stop-color="#333"/></linearGradient><linearGradient id="Unbenannter_Verlauf_35" x1="223.06" y1="243.32" x2="215.44" y2="235.7" gradientUnits="userSpaceOnUse"><stop offset="0" stop-color="#f2f2f2"/><stop offset="0.2" stop-color="#eee"/><stop offset="0.42" stop-color="#e1e1e1"/><stop offset="0.64" stop-color="#ccc"/><stop offset="0.87" stop-color="#aeaeae"/><stop offset="1" stop-color="#999"/></linearGradient><linearGradient id="Unbenannter_Verlauf_23" x1="220.46" y1="234.57" x2="219.18" y2="234.57" gradientUnits="userSpaceOnUse"><stop offset="0" stop-color="#f2f2f2"/><stop offset="0.26" stop-color="#efefef"/><stop offset="0.46" stop-color="#e5e5e5"/><stop offset="0.64" stop-color="#d4d4d4"/><stop offset="0.81" stop-color="#bdbdbd"/><stop offset="0.97" stop-color="#9f9f9f"/><stop offset="1" stop-color="#999"/></linearGradient></defs><title>Element 3</title><g id="Ebene_2" data-name="Ebene 2"><g id="Ebene_1-2" data-name="Ebene 1"><g id="haus"><g id="treppe"><polygon class="cls-1" points="44.25 126.25 51.5 130.56 44.25 134.75 36.75 130.75 44.25 126.25"/><polygon class="cls-1" points="36.75 138.75 44.25 143.25 44.25 151.75 29.25 143.25 36.75 138.75"/><polygon class="cls-2" points="36.75 130.75 36.75 138.75 44.25 143.25 44.25 134.75 36.75 130.75"/><polygon class="cls-2" points="29.25 143.25 29.25 151.25 44.25 160.25 44.25 151.75 29.25 143.25"/><polygon class="cls-1" points="29.25 151.25 44.25 160.25 44.25 168.75 21.75 155.75 29.25 151.25"/><polygon class="cls-2" points="21.75 155.75 21.75 164.25 44.25 177.25 44.25 168.75 21.75 155.75"/><polygon class="cls-1" points="21.75 164.25 44.25 177.25 44.25 185.75 14.25 168.75 21.75 164.25"/><polygon class="cls-2" points="14.25 168.75 14.25 177.25 44.25 194.25 44.25 185.75 14.25 168.75"/><polygon class="cls-1" points="14.25 177.25 44.25 194.25 44.25 202.75 7.25 181.25 14.25 177.25"/><polygon class="cls-2" points="7.25 181.25 7.25 189.75 44.25 211.25 44.25 202.75 7.25 181.25"/><polyline class="cls-2" points="0.25 160.25 7.5 164.25 7.5 181.25 7.5 189.75 0 185.25"/><polyline class="cls-1" points="7.25 164.25 44.25 118.25 43.75 105 0.25 160.25"/><polygon class="cls-3" points="44.25 118.25 44.25 118.76 44.25 126.25 36.75 130.75 36.75 138.75 29.25 143.25 29.25 151.25 21.75 155.75 21.75 164.25 14.25 168.75 14.25 177.25 7.25 181.25 7.25 164.25 44.25 118.25"/></g><polygon class="cls-3" points="144.75 35 70.75 77 186.75 145 263.75 100.36 144.75 35"/><polygon class="cls-3" points="142.75 153 68.75 195 200.75 273 278.75 228 142.75 153"/><polygon class="cls-2" points="157.75 126 157.75 161 276.75 228 276.75 194 157.75 126"/><polygon class="cls-4" points="70.75 77 70.75 59 144.75 16 144.75 35 70.75 77"/><polygon class="cls-1" points="276.75 194 290.75 186 203.75 135 188.75 144 276.75 194"/><polygon class="cls-3" points="101.75 194 116.75 182.54 116.75 110 101.75 118.91 101.75 194"/><g id="tisch"><ellipse class="cls-5" cx="208.75" cy="233.15" rx="18.93" ry="7.63"/><polygon class="cls-6" points="226.86 239.51 226.86 240.49 219.53 245 211.64 240.49 211.64 239.51 219.53 244.02 226.86 239.51"/><polygon class="cls-7" points="211.64 239.51 219.53 235 226.86 239.51 219.56 244.13 211.64 239.51"/><rect class="cls-8" x="219.18" y="229" width="1.29" height="11.14" rx="0.56"/><ellipse class="cls-9" cx="219.75" cy="223.37" rx="18.93" ry="7.63"/><ellipse class="cls-10" cx="219.75" cy="222.15" rx="18.93" ry="7.63"/></g><polygon class="cls-1" points="189.75 244 203.75 236 116.75 185 101.75 194 189.75 244"/><polygon class="cls-2" points="43.75 211 189.75 295 189.75 244 102.75 193 102.75 144 189.75 194 189.75 143 43.75 59 43.75 211"/><polygon class="cls-2" points="144.75 16 144.75 35 263.75 102 263.75 84 144.75 16"/><polygon class="cls-5" points="81.38 71.5 113.75 90 113.75 53 81.38 71.5"/><polygon class="cls-11" points="113.75 53 113.75 90 146.13 71.5 113.75 53"/><polygon class="cls-4" points="189.75 194 291.75 135 291.75 84 189.75 143 189.75 194"/><path class="cls-1" d="M145.75,0l-102,59,146,84,102-59Zm43.5,127.5-118-68,73.64-43.21,118,68Z"/><g class="cls-12"><polygon points="143.75 217 157.75 209 116.75 185 102.75 193 143.75 217"/></g><polyline class="cls-5" points="102.75 144 116.75 152 116.75 185 102.75 193"/><polygon class="cls-13" points="276.75 204 273.69 202.69 199.75 244 203.75 246 276.75 204"/><polyline class="cls-4" points="203.75 236 203.75 270 276.75 228 276.75 194 290.75 186 290.75 236.5 189.75 295 189.75 244 203.75 236"/><polygon class="cls-11" points="138.75 198 116.75 185 116.75 152 138.75 164 138.75 198"/><path class="cls-5" d="M43.68,201c.07,0-22.93-36-22.93-36V147l-3-9,26-33Z"/><polyline class="cls-5" points="195.75 231 239.68 206.63 239.22 172.22 252.96 163.54 248.75 160 189.75 194 138.75 164 138.75 198"/><polygon class="cls-5" points="203.75 246 203.75 270 276.75 228 276.75 204 203.75 246"/><g id="liege"><g class="cls-12"><polygon points="193.33 92.14 205.58 88.46 166.75 65 156.29 70.82 193.33 92.14"/></g><rect class="cls-14" x="172.71" y="72.73" width="1.8" height="7.69" rx="0.72" transform="translate(163.17 -112.89) rotate(63.04)"/><polygon class="cls-15" points="205.98 98.23 216.75 91.31 194.44 79 183.67 59 172.13 65.92 182.9 85.15 205.98 98.23"/><polygon class="cls-2" points="205.98 99.77 182.13 85.92 171.37 66.69 172.13 65.92 182.9 85.15 205.98 98.23 205.98 99.77"/><polygon class="cls-1" points="205.98 98.23 205.98 99.77 216.75 92.85 216.75 91.31 205.98 98.23"/></g><g id="liege-2" data-name="liege"><g class="cls-12"><polygon points="165.33 107.14 177.58 103.46 138.75 80 128.29 85.82 165.33 107.14"/></g><rect class="cls-14" x="146.71" y="88.73" width="1.8" height="7.69" rx="0.72" transform="translate(163.22 -80.97) rotate(63.04)"/><polygon class="cls-15" points="179.98 114.23 190.75 107.31 168.44 95 157.67 75 146.13 81.92 156.9 101.15 179.98 114.23"/><polygon class="cls-2" points="179.98 115.77 156.13 101.92 145.37 82.69 146.13 81.92 156.9 101.15 179.98 114.23 179.98 115.77"/><polygon class="cls-1" points="179.98 114.23 179.98 115.77 190.75 108.85 190.75 107.31 179.98 114.23"/></g><g id="fenster"><polygon class="cls-11" points="83.75 133 83.75 183 65.75 173 65.75 122 83.75 133"/><polygon class="cls-1" points="66.75 172 71.75 169 82.75 175 82.75 181 66.75 172"/><polygon class="cls-3" points="71.75 169 71.75 126 66.75 124 66.75 172 71.75 169"/><polygon class="cls-16" points="68.75 124.12 68.75 149 83.25 157.13 82.75 132.21 68.75 124.12"/><polygon class="cls-17" points="83.25 132.5 83.25 182.5 66.25 172.5 66.25 122.5 83.25 132.5"/></g></g></g></g></svg>